<?xml version="1.0" standalone="no"?>
<!DOCTYPE svg PUBLIC "-//W3C//DTD SVG 20010904//EN"
 "http://www.w3.org/TR/2001/REC-SVG-20010904/DTD/svg10.dtd">
<svg version="1.0" xmlns="http://www.w3.org/2000/svg"
 width="512.000000pt" height="512.000000pt" viewBox="0 0 512.000000 512.000000"
 preserveAspectRatio="xMidYMid meet">
<metadata>
Created by potrace 1.14, written by Peter Selinger 2001-2017
</metadata>
<g transform="translate(0.000000,512.000000) scale(0.100000,-0.100000)"
fill="#000000" stroke="none">
<path d="M2420 4899 c-543 -62 -994 -359 -1205 -793 -107 -221 -139 -364 -139
-626 0 -210 14 -313 71 -500 91 -301 247 -595 478 -900 194 -256 321 -487 535
-970 67 -151 142 -312 167 -358 179 -329 368 -480 663 -528 230 -38 517 7 688
107 86 51 210 180 255 266 70 135 103 259 114 429 6 100 5 102 -20 128 -32 32
-61 33 -91 3 -20 -20 -24 -37 -30 -129 -23 -361 -184 -573 -492 -650 -118 -29
-373 -32 -474 -4 -123 33 -207 83 -300 176 -108 108 -182 232 -303 504 -292
660 -357 781 -599 1109 -151 205 -226 324 -317 508 -325 653 -271 1272 148
1689 310 308 782 457 1256 395 125 -17 309 -72 411 -123 260 -131 512 -388
648 -659 35 -72 52 -94 71 -99 38 -9 70 2 85 31 18 34 0 84 -72 204 -188 315
-463 562 -759 685 -241 99 -515 136 -789 105z"/>
<path d="M2376 4315 c-376 -78 -635 -309 -727 -650 -18 -66 -22 -108 -23 -240
-1 -175 11 -252 66 -418 71 -220 307 -624 390 -668 29 -15 74 6 86 41 12 34 7
45 -76 160 -260 360 -376 752 -314 1053 32 153 85 251 197 363 76 76 105 97
185 137 153 75 228 92 405 92 169 0 230 -12 354 -71 100 -47 183 -108 263
-192 66 -71 148 -182 148 -201 0 -7 -23 -11 -53 -11 -124 0 -300 -67 -429
-162 -329 -244 -476 -801 -332 -1260 38 -122 108 -249 196 -359 56 -70 90
-124 118 -189 95 -217 205 -322 367 -351 138 -24 274 44 333 166 78 161 29
361 -131 540 -146 163 -214 299 -207 417 4 78 27 117 108 183 79 65 136 140
191 250 73 149 84 200 83 395 0 151 -2 172 -27 245 -92 277 -304 528 -547 647
-137 68 -235 90 -405 94 -103 2 -172 -1 -219 -11z m1011 -741 c55 -15 76 -278
34 -428 -39 -141 -91 -226 -213 -346 -126 -124 -149 -166 -156 -282 -9 -157
71 -325 251 -527 31 -35 71 -93 89 -129 60 -122 39 -259 -49 -313 -80 -50
-212 -17 -285 71 -16 19 -60 98 -98 175 -51 104 -87 162 -140 225 -84 100
-158 243 -190 370 -31 121 -38 343 -16 465 59 314 203 533 426 645 106 53 283
91 347 74z"/>
</g>
</svg>
