<?xml version="1.0" standalone="no"?>
<!DOCTYPE svg PUBLIC "-//W3C//DTD SVG 20010904//EN"
 "http://www.w3.org/TR/2001/REC-SVG-20010904/DTD/svg10.dtd">
<svg version="1.0" xmlns="http://www.w3.org/2000/svg"
 width="700.000000pt" height="700.000000pt" viewBox="0 0 700.000000 700.000000"
 preserveAspectRatio="xMidYMid meet">
<metadata>
Created by potrace 1.11, written by Peter Selinger 2001-2013
</metadata>
<g transform="translate(0.000000,700.000000) scale(0.100000,-0.100000)"
fill="#000000" stroke="none">
<path d="M3423 6723 c-18 -2 -33 -8 -33 -12 0 -6 12 -7 73 -2 10 0 15 6 12 11
-3 6 -9 9 -13 8 -4 0 -22 -3 -39 -5z"/>
<path d="M3495 6720 c-4 -6 15 -9 47 -7 126 5 322 -26 478 -76 36 -12 68 -20
72 -19 3 1 12 -5 18 -13 7 -8 21 -15 31 -15 17 0 188 -77 199 -89 3 -3 32 -24
65 -45 110 -72 200 -152 400 -360 109 -113 203 -206 209 -206 6 0 -2 13 -19
28 -16 15 -65 72 -109 126 -43 54 -87 101 -97 103 -10 3 -16 9 -13 15 3 5 -34
49 -83 99 -48 49 -90 92 -93 96 -3 3 9 -2 25 -10 38 -20 187 -174 325 -336
124 -146 187 -201 225 -201 16 0 43 -11 61 -25 38 -29 54 -32 54 -7 0 13 -2
14 -9 3 -5 -7 -14 -10 -20 -7 -6 4 -9 11 -6 16 3 5 -18 27 -48 48 -29 22 -129
120 -222 217 -173 181 -340 333 -430 390 -87 56 -301 163 -339 170 -20 4 -36
11 -36 16 0 5 -8 9 -18 9 -10 0 -22 4 -28 9 -13 13 -113 40 -228 62 -111 21
-400 27 -411 9z m1022 -296 c-9 -9 -28 6 -21 18 4 6 10 6 17 -1 6 -6 8 -13 4
-17z"/>
<path d="M3330 6700 c20 -13 53 -13 45 0 -3 6 -18 10 -33 10 -21 0 -24 -2 -12
-10z"/>
<path d="M3260 6696 c0 -2 11 -6 25 -8 14 -3 25 -1 25 3 0 5 -11 9 -25 9 -14
0 -25 -2 -25 -4z"/>
<path d="M3189 6686 c-4 -4 -33 -12 -84 -21 -11 -2 -33 -9 -50 -14 -27 -9 -25
-10 14 -5 30 4 41 3 37 -5 -4 -6 20 -1 54 11 33 12 60 26 60 30 0 8 -24 11
-31 4z"/>
<path d="M2795 6539 c-38 -21 -72 -45 -77 -53 -8 -14 -63 -49 -79 -51 -28 -2
-289 -226 -289 -248 0 -3 -29 -36 -66 -74 -67 -70 -96 -113 -100 -148 -1 -11
-5 -31 -8 -45 l-7 -25 13 25 c7 14 18 29 26 33 7 5 10 17 7 27 -3 10 -1 21 4
25 7 4 8 -1 4 -11 -4 -12 -3 -15 5 -10 17 10 43 64 34 69 -4 2 -1 2 5 1 7 -2
25 13 39 32 15 19 62 69 105 111 43 42 76 80 73 85 -3 4 0 8 6 8 6 0 47 31 92
69 77 66 203 149 300 198 42 21 43 22 12 21 -17 -1 -62 -18 -99 -39z"/>
<path d="M3394 6270 c-23 -5 -61 -14 -85 -21 -24 -7 -47 -12 -51 -11 -5 1 -8
-2 -8 -6 0 -4 -8 -8 -17 -9 -23 -1 -210 -84 -279 -124 -30 -16 -53 -35 -51
-42 1 -6 -5 -11 -13 -12 -25 0 -111 -64 -179 -132 -35 -34 -68 -63 -73 -63 -4
0 -8 -6 -8 -13 0 -7 -31 -51 -70 -97 -38 -46 -70 -88 -70 -92 0 -4 -11 -19
-25 -34 -14 -15 -25 -38 -25 -50 0 -13 -6 -24 -13 -24 -7 0 -18 -12 -25 -27
-7 -16 -18 -39 -26 -53 -8 -14 -23 -45 -34 -70 -11 -25 -34 -75 -50 -111 -17
-36 -38 -90 -47 -120 -10 -30 -24 -69 -32 -87 -21 -48 -64 -238 -69 -305 -2
-32 -7 -63 -11 -70 -4 -6 -10 -54 -14 -107 -4 -52 -13 -158 -19 -235 -11 -128
-10 -233 3 -355 3 -25 10 -92 17 -150 32 -294 141 -653 219 -724 26 -24 27
-16 2 28 -11 19 -23 52 -27 73 -4 21 -17 67 -30 103 -19 53 -37 114 -68 225
-2 6 -8 21 -13 35 -12 29 -30 206 -43 425 -5 83 -13 175 -18 205 l-8 55 -11
-35 c-11 -33 -11 -31 -11 35 -1 39 4 79 9 90 6 14 7 3 3 -32 -4 -32 -2 -53 4
-53 14 0 22 26 22 71 0 26 4 38 11 33 7 -4 10 5 8 28 -2 18 0 38 3 43 3 6 9
53 13 105 3 52 12 115 19 140 7 25 30 117 51 205 40 167 66 242 126 359 29 58
39 71 57 69 24 -3 27 4 13 26 -9 14 6 61 19 61 4 0 15 18 25 40 10 22 21 40
25 40 4 0 13 14 20 30 7 17 18 30 26 30 14 0 29 35 20 48 -2 4 0 14 6 22 8 12
8 11 3 -5 -5 -16 -4 -18 6 -7 7 6 21 12 31 12 11 0 20 10 24 28 10 41 23 53
44 42 28 -15 30 -13 30 31 l0 41 35 -6 c34 -7 35 -6 35 24 0 35 19 47 49 30
18 -9 21 -8 21 8 0 20 39 62 58 62 7 0 12 -7 12 -15 0 -8 5 -15 10 -15 6 0 10
9 10 20 0 24 37 63 51 54 6 -3 14 -17 19 -30 13 -34 32 -30 28 6 -5 46 44 93
58 55 9 -22 22 -18 30 8 8 28 33 57 50 57 7 0 15 -18 19 -41 8 -47 26 -47 39
2 9 31 31 58 48 59 4 0 13 -20 19 -45 14 -54 36 -59 45 -10 14 75 60 66 71
-14 6 -43 20 -54 29 -23 23 70 25 72 70 72 24 0 69 -7 101 -16 32 -9 73 -19
92 -24 18 -5 38 -13 44 -19 6 -6 22 -11 35 -11 34 0 112 -48 112 -70 0 -13 5
-17 20 -13 28 7 62 -26 91 -88 13 -27 27 -49 31 -49 5 0 8 -23 8 -51 0 -37 -9
-69 -36 -124 -33 -68 -35 -77 -23 -103 18 -40 87 -85 196 -126 135 -51 152
-62 217 -129 67 -71 95 -125 96 -182 0 -22 7 -51 16 -63 9 -13 13 -31 9 -42
-3 -11 -8 -32 -11 -47 -28 -155 -57 -256 -100 -347 -13 -28 -24 -54 -24 -58 0
-17 -129 -163 -174 -198 -25 -19 -45 -41 -46 -47 0 -7 -7 -13 -15 -13 -8 0
-36 -13 -63 -30 -26 -16 -41 -30 -34 -30 22 0 12 -17 -18 -30 -34 -14 -30 -35
6 -26 22 6 153 83 164 97 3 3 20 14 38 23 64 33 194 181 240 275 96 193 146
380 138 509 -2 40 0 72 5 72 15 0 10 30 -6 36 -8 4 -15 19 -15 35 0 19 4 27
13 23 10 -3 12 5 9 32 -3 25 -7 32 -13 23 -7 -11 -9 -11 -9 3 0 9 5 18 10 20
7 2 7 27 0 78 -14 102 -40 191 -53 183 -5 -3 -7 -1 -4 4 13 20 -60 190 -85
201 -4 2 -8 9 -8 16 0 7 -12 22 -26 35 -19 17 -29 19 -39 11 -10 -8 -18 -4
-34 17 -11 15 -26 34 -31 41 -6 7 -8 16 -5 22 3 5 -3 13 -12 19 -10 6 -13 11
-7 11 6 0 17 -7 24 -15 7 -8 18 -15 25 -15 6 0 11 -10 11 -22 -1 -17 5 -24 22
-26 27 -4 27 0 0 54 -14 29 -28 44 -40 44 -14 0 -18 6 -16 23 2 16 -2 21 -13
19 -9 -1 -22 5 -29 13 -7 8 -9 15 -5 15 4 0 2 7 -5 15 -7 8 -17 12 -22 9 -5
-3 -8 2 -6 12 2 11 -10 26 -32 40 -19 12 -46 33 -60 46 -25 23 -90 61 -90 51
0 -3 10 -13 23 -23 12 -10 19 -21 16 -25 -9 -9 -69 44 -69 61 0 8 -7 14 -15
14 -7 0 -18 8 -24 18 -8 14 -12 15 -23 3 -11 -12 -11 -13 1 -6 9 5 12 4 7 -3
-12 -20 -33 -13 -32 10 1 19 -9 25 -69 41 -38 10 -81 24 -95 31 -30 15 -362
19 -426 6z m281 -10 c-3 -5 -1 -10 4 -10 6 0 11 -4 11 -10 0 -12 -30 -13 -49
-1 -18 11 -5 31 20 31 11 0 17 -4 14 -10z m-236 -64 c-11 -9 -90 -16 -84 -6 3
5 25 10 47 10 23 0 39 -2 37 -4z m-145 -27 c-7 -12 -54 -16 -54 -5 0 6 13 11
29 11 16 0 27 -3 25 -6z m323 -5 c-3 -3 -12 -4 -19 -1 -8 3 -5 6 6 6 11 1 17
-2 13 -5z m410 -41 c-9 -9 -68 8 -61 18 3 5 0 9 -5 9 -6 0 -11 5 -11 10 0 6
18 1 41 -10 23 -12 39 -24 36 -27z m-70 -24 c22 -8 24 -12 13 -19 -21 -14 -30
-12 -30 5 0 18 -16 20 -23 3 -3 -8 -6 -6 -6 5 -1 20 7 21 46 6z m-487 -3 c0
-3 -4 -8 -10 -11 -5 -3 -10 -1 -10 4 0 6 5 11 10 11 6 0 10 -2 10 -4z m252
-38 c-7 -7 -12 -8 -12 -2 0 14 12 26 19 19 2 -3 -1 -11 -7 -17z m101 -14 c18
-3 39 -6 48 -7 8 -1 23 -10 33 -19 10 -10 24 -18 32 -18 8 0 14 -6 14 -12 0
-10 2 -10 9 0 6 11 13 7 30 -14 11 -14 21 -31 21 -36 0 -6 7 -7 16 -4 8 3 24
1 34 -4 17 -9 19 -8 13 7 -4 10 -11 21 -17 25 -6 4 -7 11 -2 15 5 4 11 2 13
-5 3 -7 12 -19 21 -28 63 -58 92 -90 87 -101 -2 -7 0 -13 6 -13 5 0 15 13 20
29 7 20 15 28 26 24 9 -3 11 -8 4 -12 -5 -4 -14 -18 -20 -33 -8 -22 -15 -26
-43 -24 -18 2 -41 4 -50 5 -10 0 -18 9 -18 18 0 15 -2 14 -15 -3 -8 -10 -15
-14 -14 -9 3 22 -2 29 -11 15 -8 -13 -10 -13 -10 1 0 14 -31 36 -37 27 -2 -2
-10 8 -19 21 -12 17 -13 25 -5 30 7 5 1 13 -16 22 -16 8 -37 22 -47 32 -11 9
-22 17 -25 18 -35 4 -55 12 -67 24 -9 8 -26 18 -40 21 -13 3 -24 10 -24 16 0
5 5 6 10 3 6 -4 25 -9 43 -11z m181 1 c25 -19 16 -19 -20 0 -16 8 -22 15 -14
15 8 -1 24 -7 34 -15z m-64 -5 c0 -5 -2 -10 -4 -10 -3 0 -8 5 -11 10 -3 6 -1
10 4 10 6 0 11 -4 11 -10z m187 -24 c0 -8 -6 -12 -15 -9 -11 5 -11 7 0 14 7 5
13 9 14 9 0 0 1 -6 1 -14z m-116 -11 c8 5 11 5 7 0 -4 -4 -3 -16 3 -26 8 -15
6 -17 -6 -13 -9 4 -20 15 -25 25 -12 22 -13 39 -1 20 5 -8 14 -10 22 -6z
m-1101 -34 c0 -5 -7 -11 -15 -15 -15 -5 -20 5 -8 17 9 10 23 9 23 -2z m1387
-27 c-3 -3 -12 -4 -19 -1 -8 3 -5 6 6 6 11 1 17 -2 13 -5z m8 -24 c-4 -6 3 -9
16 -7 12 1 24 -4 26 -10 6 -17 -29 -17 -45 -1 -15 15 -15 28 -1 28 5 0 7 -4 4
-10z m75 -154 c0 -3 -4 -8 -10 -11 -5 -3 -10 -1 -10 4 0 6 5 11 10 11 6 0 10
-2 10 -4z m130 -227 c0 -5 4 -8 10 -4 17 10 43 -45 61 -132 13 -56 15 -91 9
-102 -6 -12 -5 -22 1 -28 15 -15 25 -223 10 -223 -15 0 -28 33 -14 37 17 6 -8
87 -37 120 -20 21 -24 34 -19 53 4 14 7 21 8 17 1 -5 6 -5 12 -1 8 4 6 10 -6
17 -14 7 -15 11 -4 17 10 7 10 11 0 24 -7 8 -10 19 -7 25 3 5 0 33 -8 63 -20
75 -27 89 -39 81 -5 -3 -7 -1 -3 5 3 6 2 13 -4 17 -17 10 -11 25 10 25 11 0
20 -5 20 -11z m-2060 -106 c0 -14 -49 -89 -50 -76 0 6 5 15 10 18 6 3 10 16
10 29 0 12 3 26 7 29 9 9 23 9 23 0z m1925 -73 c3 -5 1 -10 -4 -10 -6 0 -11 5
-11 10 0 6 2 10 4 10 3 0 8 -4 11 -10z m5 -82 c0 -10 -36 7 -45 22 -4 6 5 5
19 -2 14 -6 26 -15 26 -20z m140 2 c0 -5 -2 -10 -4 -10 -3 0 -8 5 -11 10 -3 6
-1 10 4 10 6 0 11 -4 11 -10z m-2208 -113 c-12 -13 -20 -26 -17 -29 3 -2 -2
-5 -10 -5 -11 0 -8 8 12 29 15 15 29 28 32 28 2 0 -5 -10 -17 -23z m2253 -10
c1 -12 5 -32 9 -44 4 -14 3 -23 -3 -23 -6 0 -6 -11 0 -32 5 -18 9 -55 9 -82 0
-46 -1 -48 -15 -30 -17 22 -20 38 -5 29 15 -10 12 28 -5 52 -21 30 -29 102
-16 137 13 31 24 29 26 -7z m-2392 -577 c-3 -12 -8 -19 -11 -16 -5 6 5 36 12
36 2 0 2 -9 -1 -20z m2301 -35 c-4 -8 -10 -12 -15 -9 -11 6 -2 24 11 24 5 0 7
-7 4 -15z"/>
<path d="M4522 5495 c-1 -13 3 -27 8 -30 6 -3 10 -15 10 -26 0 -10 3 -19 8
-19 12 0 2 78 -12 89 -8 7 -12 3 -14 -14z"/>
<path d="M4540 5141 c0 -6 4 -13 10 -16 6 -3 7 1 4 9 -7 18 -14 21 -14 7z"/>
<path d="M4081 6154 c0 -11 3 -14 6 -6 3 7 2 16 -1 19 -3 4 -6 -2 -5 -13z"/>
<path d="M2152 5940 c-14 -23 -15 -30 -3 -30 8 0 24 41 18 47 -2 1 -8 -7 -15
-17z"/>
<path d="M3840 5930 c0 -5 5 -10 11 -10 5 0 7 5 4 10 -3 6 -8 10 -11 10 -2 0
-4 -4 -4 -10z"/>
<path d="M2100 5809 c0 -5 5 -7 10 -4 6 3 10 8 10 11 0 2 -4 4 -10 4 -5 0 -10
-5 -10 -11z"/>
<path d="M2022 5753 c-27 -38 -92 -167 -92 -181 0 -7 -4 -12 -10 -12 -5 0 -10
-4 -10 -10 0 -5 7 -10 15 -10 8 0 15 9 15 19 0 11 7 26 15 35 8 8 15 23 15 33
0 11 7 28 15 39 12 15 16 16 23 6 13 -19 24 12 16 42 -3 15 1 29 11 40 10 9
15 19 12 22 -3 3 -14 -7 -25 -23z"/>
<path d="M2035 5720 c-3 -5 -1 -10 4 -10 6 0 11 5 11 10 0 6 -2 10 -4 10 -3 0
-8 -4 -11 -10z"/>
<path d="M1940 5520 c-7 -13 -18 -19 -28 -16 -29 9 -95 -146 -127 -299 -9 -44
-20 -93 -26 -110 -14 -47 -49 -252 -54 -314 -2 -31 -6 -81 -9 -111 -11 -98
-13 -478 -4 -568 5 -48 11 -114 13 -147 3 -33 8 -80 11 -105 4 -25 8 -61 9
-80 1 -19 8 -65 14 -102 6 -38 16 -98 21 -135 14 -88 89 -402 103 -428 6 -11
13 -31 15 -45 2 -13 7 -27 11 -30 10 -7 33 -76 38 -115 2 -16 10 -33 18 -38
11 -5 14 -16 9 -29 -3 -11 -2 -18 3 -15 4 3 13 -6 20 -19 6 -13 7 -22 2 -18
-12 7 -11 -18 2 -36 9 -13 10 -12 5 3 -3 11 -2 16 5 12 5 -4 7 -15 4 -24 -6
-21 17 -92 41 -124 16 -22 16 -22 10 8 -4 20 3 12 20 -25 46 -98 48 -104 49
-145 2 -42 30 -106 113 -260 72 -133 93 -166 102 -160 5 3 12 0 16 -6 5 -8 3
-9 -6 -4 -8 5 -11 3 -8 -6 3 -8 14 -13 24 -12 10 1 13 0 6 -3 -16 -7 -15 -29
2 -43 8 -7 17 -24 21 -39 3 -15 14 -38 23 -52 9 -14 17 -30 18 -35 3 -19 85
-130 95 -128 4 2 27 -24 49 -56 22 -33 44 -63 50 -66 5 -3 10 -11 10 -16 0 -6
-6 -7 -12 -3 -9 5 -9 3 1 -9 7 -9 17 -15 21 -12 5 3 11 1 15 -5 3 -5 1 -10 -5
-10 -12 0 11 -41 45 -80 12 -14 25 -33 29 -44 3 -10 12 -16 20 -13 8 3 22 -4
33 -15 10 -12 12 -18 6 -14 -15 8 -17 -3 -4 -23 5 -7 13 -11 18 -8 10 6 44
-25 57 -53 4 -8 -6 1 -23 20 -41 45 -40 29 1 -24 48 -63 90 -106 99 -101 4 3
29 -22 56 -54 26 -33 54 -60 61 -60 7 -1 11 -5 7 -11 -3 -5 10 -23 30 -41 83
-76 99 -89 103 -84 8 8 32 -16 26 -26 -3 -5 2 -9 11 -9 9 0 13 -5 10 -10 -3
-6 -3 -10 2 -10 4 0 31 -20 58 -45 28 -24 55 -45 62 -45 6 0 13 -4 15 -8 2 -5
25 -23 51 -41 38 -26 46 -29 35 -12 -7 12 -17 21 -23 21 -13 1 -75 57 -75 69
0 6 5 13 12 17 7 4 8 3 4 -4 -4 -7 -1 -12 7 -12 7 0 24 -11 37 -25 12 -13 28
-23 34 -22 6 1 10 -3 9 -9 -1 -6 10 -17 25 -25 15 -7 35 -20 45 -28 14 -12 17
-12 17 0 1 10 5 8 15 -5 8 -11 22 -21 31 -22 9 -1 21 -9 27 -17 7 -8 23 -21
37 -31 31 -20 14 -21 -35 0 -20 8 -39 13 -42 10 -8 -8 46 -38 57 -31 5 3 10 2
10 -4 0 -10 40 -9 57 2 6 4 21 -5 33 -18 25 -27 21 -32 -11 -15 -10 6 -19 7
-19 3 0 -14 99 -63 105 -53 10 16 28 11 21 -5 -8 -21 55 -45 132 -50 49 -3 62
0 62 11 0 8 -9 14 -20 14 -11 0 -20 5 -20 11 0 6 7 8 16 5 9 -3 20 -6 25 -6 5
0 9 -7 9 -15 0 -8 9 -15 19 -15 11 0 26 -6 33 -12 7 -7 29 -14 48 -16 41 -3
81 -22 74 -34 -3 -4 4 -8 15 -8 12 0 21 6 21 13 1 8 4 7 13 -3 13 -17 91 -41
152 -46 22 -3 75 -18 118 -34 92 -35 100 -36 68 -9 -28 23 -22 36 9 19 28 -15
38 -5 22 21 -7 11 -10 24 -7 29 6 10 -10 16 -70 26 -22 4 -45 10 -50 14 -6 5
-21 2 -35 -6 l-25 -15 33 4 c18 2 35 0 38 -4 5 -9 -52 -23 -65 -15 -5 4 -11 1
-13 -5 -2 -7 -18 -5 -46 7 -43 19 -50 28 -32 39 22 13 8 23 -36 23 -25 1 -55
4 -66 7 -10 4 -25 1 -33 -5 -11 -9 -15 -9 -15 -1 0 21 -99 47 -125 32 -20 -11
-36 -9 -32 3 4 9 -19 21 -66 36 -75 23 -278 109 -287 120 -3 4 -35 22 -73 40
-73 37 -124 80 -94 80 9 0 17 -3 17 -8 0 -4 9 -13 20 -20 11 -7 20 -9 20 -4 0
8 -41 39 -212 161 -72 52 -216 179 -318 282 -106 106 -270 286 -270 296 0 5
-19 30 -42 55 -52 56 -68 75 -68 83 0 4 -16 26 -35 49 -19 24 -35 48 -35 55 0
6 -6 11 -13 11 -6 0 -22 23 -35 50 -13 28 -33 59 -44 70 -12 11 -18 20 -14 20
4 0 2 6 -4 13 -6 6 -24 27 -40 46 -17 19 -30 42 -30 52 0 9 -7 22 -15 29 -8 7
-12 16 -10 21 3 4 -3 17 -15 29 -11 11 -20 22 -20 25 0 3 -12 24 -27 48 -42
65 -50 79 -74 130 -12 26 -26 47 -32 47 -6 0 -7 3 -4 6 4 4 -2 19 -13 34 -11
16 -20 32 -20 36 0 4 -16 40 -35 81 -19 41 -35 78 -35 83 0 6 -4 10 -8 10 -12
0 -32 46 -32 71 0 11 -21 71 -46 132 -25 62 -57 148 -70 192 -14 44 -36 115
-49 157 -14 42 -25 88 -25 102 0 14 -4 27 -9 30 -7 5 -13 23 -27 94 -1 7 -9
36 -17 65 -9 28 -21 79 -27 112 -6 33 -16 78 -21 100 -5 22 -14 72 -19 110 -6
39 -17 117 -25 175 -9 58 -18 146 -20 195 -3 50 -8 108 -12 130 -4 22 -6 43
-5 46 1 4 4 71 7 150 7 188 16 312 23 324 3 5 8 39 9 75 2 36 6 72 9 80 3 8 8
38 10 65 3 28 11 59 18 70 8 12 19 48 26 80 6 33 18 81 25 108 12 40 12 47 0
47 -8 0 -17 5 -21 11 -4 7 2 9 16 7 18 -2 25 5 37 37 8 22 23 65 34 95 11 30
27 67 35 83 8 15 13 27 10 27 -3 0 -10 -9 -16 -20z m-20 -40 c0 -5 -5 -10 -11
-10 -5 0 -7 5 -4 10 3 6 8 10 11 10 2 0 4 -4 4 -10z m-25 -52 c-4 -18 -11 -37
-17 -43 -6 -7 -8 -5 -4 5 2 8 7 27 10 43 4 15 9 27 12 27 3 0 3 -15 -1 -32z
m-35 -84 c0 -8 -5 -12 -10 -9 -6 4 -8 11 -5 16 9 14 15 11 15 -7z m283 -2914
c3 -11 1 -20 -4 -20 -5 0 -9 9 -9 20 0 11 2 20 4 20 2 0 6 -9 9 -20z m376
-704 c-3 -3 -11 5 -18 17 -13 21 -12 21 5 5 10 -10 16 -20 13 -22z m591 -666
c0 -5 -2 -10 -4 -10 -3 0 -8 5 -11 10 -3 6 -1 10 4 10 6 0 11 -4 11 -10z m8
-38 c6 -18 -15 -14 -22 4 -4 10 -1 14 6 12 6 -2 14 -10 16 -16z m152 -68 c0
-8 -19 -13 -24 -6 -3 5 1 9 9 9 8 0 15 -2 15 -3z m15 -34 c3 -5 1 -10 -4 -10
-6 0 -11 5 -11 10 0 6 2 10 4 10 3 0 8 -4 11 -10z m117 -67 c22 -20 24 -35 3
-27 -8 4 -12 10 -9 15 3 5 -2 9 -10 9 -9 0 -16 5 -16 10 0 15 11 12 32 -7z
m108 -103 c13 -8 13 -10 -2 -10 -9 0 -20 5 -23 10 -8 13 5 13 25 0z m315 -189
c3 -5 1 -12 -4 -15 -12 -8 -41 3 -41 15 0 12 37 12 45 0z m70 -26 c11 -2 28
-4 38 -4 15 -1 16 -5 7 -21 -8 -15 -8 -20 1 -20 7 0 10 -3 6 -6 -3 -3 -20 4
-36 16 -17 11 -35 19 -40 15 -6 -3 -15 4 -22 16 -10 20 -9 21 7 14 11 -4 28
-9 39 -10z m286 -63 c-7 -2 -18 1 -23 6 -8 8 -4 9 13 5 13 -4 18 -8 10 -11z
m393 -76 l27 -14 -34 -4 c-48 -5 -62 1 -40 18 10 7 19 14 19 14 1 0 14 -6 28
-14z"/>
<path d="M3742 5128 c3 -30 1 -33 -27 -33 -21 0 -33 7 -42 25 -13 27 -40 34
-35 10 1 -10 -2 -9 -13 4 -17 23 -19 18 -6 -17 8 -20 6 -26 -8 -30 -27 -7 -51
11 -51 37 0 18 -5 23 -22 22 -19 -1 -23 -7 -22 -34 2 -25 -2 -32 -17 -32 -11
0 -23 8 -26 18 -9 24 -20 30 -49 24 -18 -3 -22 -8 -15 -15 17 -17 13 -47 -6
-49 -53 -4 -59 -2 -73 28 -13 26 -18 28 -29 17 -15 -16 1 -43 25 -43 23 0 16
-16 -13 -29 -47 -22 -74 -23 -94 -5 -11 9 -19 12 -19 6 0 -6 6 -13 13 -16 8
-3 6 -9 -7 -20 -27 -22 -47 -20 -53 4 -4 14 -14 20 -34 20 -33 0 -35 -6 -13
-38 12 -18 13 -26 4 -37 -16 -19 -36 -19 -44 0 -6 17 -42 20 -51 5 -3 -5 -1
-19 5 -30 9 -16 8 -25 -1 -36 -10 -13 -14 -12 -30 2 -15 14 -21 15 -34 4 -9
-7 -14 -22 -13 -34 3 -18 -2 -21 -32 -21 -33 0 -35 -1 -32 -33 4 -40 -20 -53
-49 -26 -17 16 -22 16 -30 4 -5 -8 -7 -25 -4 -37 8 -36 -4 -54 -33 -46 -17 4
-23 2 -18 -5 5 -8 2 -10 -8 -6 -10 4 -16 1 -16 -9 0 -8 5 -17 12 -19 21 -7 -1
-38 -32 -44 -37 -8 -46 -20 -30 -39 18 -21 5 -43 -27 -47 -25 -3 -28 -6 -25
-37 3 -38 -12 -61 -40 -61 -16 0 -19 -5 -13 -29 7 -31 -8 -70 -32 -84 -7 -5
-11 -13 -7 -18 13 -21 -8 -70 -34 -80 -25 -10 -26 -11 -9 -24 24 -18 14 -85
-14 -92 -23 -6 -24 -12 -3 -28 21 -15 10 -72 -14 -78 -15 -4 -15 -5 1 -6 14
-1 17 -6 12 -22 -5 -15 -4 -19 4 -15 6 4 11 0 11 -9 0 -10 -5 -13 -12 -9 -24
15 22 -385 50 -431 4 -5 8 -17 9 -26 5 -32 23 -69 33 -69 6 0 8 -4 5 -10 -7
-11 28 -94 44 -104 6 -4 11 -16 11 -27 0 -10 4 -27 10 -37 41 -73 160 -328
174 -374 38 -123 34 -238 -10 -255 -24 -9 -4 -23 34 -23 23 0 47 8 65 23 61
49 40 164 -67 377 -30 58 -59 123 -66 145 -7 22 -28 70 -47 107 -75 148 -91
248 -74 468 16 215 104 443 213 548 12 12 55 53 93 90 80 78 287 235 325 247
14 4 30 11 35 15 6 4 34 13 64 21 29 7 56 19 58 26 3 7 9 10 14 8 4 -3 27 4
50 16 30 15 65 22 123 24 45 2 104 9 131 15 28 6 104 14 170 16 66 3 125 5
130 6 6 0 58 -3 118 -7 61 -4 107 -4 107 1 0 5 23 10 52 12 61 4 135 32 103
39 -31 7 -39 20 -16 26 12 3 21 1 21 -4 0 -5 5 -9 10 -9 15 0 12 26 -5 40 -8
7 -15 27 -15 45 0 28 -5 35 -31 44 -17 6 -35 8 -40 5 -5 -3 -9 6 -9 20 0 30
-32 50 -66 42 -20 -5 -26 -2 -34 19 -12 31 -39 43 -51 24 -12 -19 -42 0 -49
32 -7 28 -50 41 -50 15 0 -9 -8 -16 -18 -16 -24 0 -82 29 -82 41 0 18 -19 9
-22 -11 -3 -20 -3 -20 -38 -2 -21 12 -35 27 -35 38 0 28 -33 30 -37 2 -4 -32
-50 -37 -71 -8 -11 16 -16 18 -20 8 -3 -7 -6 -3 -6 10 -1 12 -6 22 -12 22 -6
0 -9 -14 -7 -32z m-82 -18 c0 -5 -5 -10 -11 -10 -5 0 -7 5 -4 10 3 6 8 10 11
10 2 0 4 -4 4 -10z m125 -90 c3 -5 -1 -10 -9 -10 -9 0 -16 5 -16 10 0 6 4 10
9 10 6 0 13 -4 16 -10z m104 -9 c9 -6 21 -5 31 1 13 8 23 7 41 -5 13 -10 31
-17 39 -17 21 0 70 -23 70 -32 0 -11 -28 -10 -34 1 -3 5 -30 12 -59 15 -63 8
-130 30 -120 39 8 9 15 9 32 -2z m-61 -26 c-9 -7 -88 -12 -88 -5 0 10 47 17
73 11 10 -2 16 -5 15 -6z m-178 -11 c0 -2 -9 -4 -20 -4 -11 0 -20 4 -20 9 0 5
9 7 20 4 11 -3 20 -7 20 -9z m-60 -38 c0 -3 -4 -8 -10 -11 -5 -3 -10 -1 -10 4
0 6 5 11 10 11 6 0 10 -2 10 -4z m47 -2 c-3 -3 -12 -4 -19 -1 -8 3 -5 6 6 6
11 1 17 -2 13 -5z m57 -13 c7 -10 -22 -37 -30 -28 -9 8 3 37 15 37 5 0 12 -4
15 -9z m76 2 c-8 -3 -18 -11 -22 -17 -5 -7 -13 -5 -25 7 -16 16 -15 17 22 16
22 0 33 -3 25 -6z m230 -3 c0 -5 -4 -10 -10 -10 -5 0 -10 5 -10 10 0 6 5 10
10 10 6 0 10 -4 10 -10z m200 -8 c0 -12 -3 -12 -17 -1 -10 7 -20 14 -22 16 -2
1 6 1 18 0 11 -1 21 -8 21 -15z m-550 -2 c0 -5 -5 -10 -11 -10 -5 0 -7 5 -4
10 3 6 8 10 11 10 2 0 4 -4 4 -10z m265 0 c3 -5 -1 -10 -10 -10 -9 0 -13 5
-10 10 3 6 8 10 10 10 2 0 7 -4 10 -10z m-305 -20 c-19 -13 -30 -13 -30 0 0 6
10 10 23 10 18 0 19 -2 7 -10z m500 -10 c0 3 34 6 75 7 56 0 75 -4 75 -14 0
-7 -4 -13 -10 -13 -5 0 -18 -10 -30 -22 -19 -21 -22 -21 -48 -6 -16 9 -38 14
-54 11 -15 -3 -36 -2 -45 2 -10 5 -26 7 -36 6 -10 -1 -24 3 -32 9 -8 7 -19 9
-24 6 -5 -4 -12 -2 -16 4 -3 5 3 10 14 10 11 0 23 -4 26 -10 3 -5 14 -10 23
-9 11 0 12 2 4 6 -27 11 0 20 38 13 22 -4 40 -4 40 0z m215 -28 c-3 -3 -11 0
-18 7 -9 10 -8 11 6 5 10 -3 15 -9 12 -12z m-871 -1 c4 -5 -4 -7 -16 -3 -14 3
-19 2 -14 -6 5 -8 0 -12 -13 -12 -26 0 -36 17 -14 23 31 8 52 7 57 -2z m266 5
c0 -3 -4 -8 -10 -11 -5 -3 -10 -1 -10 4 0 6 5 11 10 11 6 0 10 -2 10 -4z m640
-21 c0 -10 -9 -15 -27 -14 -24 2 -25 2 -5 6 12 2 22 9 22 14 0 5 2 9 5 9 3 0
5 -7 5 -15z m-943 -36 c-14 -8 -22 -8 -30 0 -8 8 -3 11 19 11 25 -1 27 -2 11
-11z m-182 -39 c-3 -5 -13 -10 -21 -10 -8 0 -12 5 -9 10 3 6 13 10 21 10 8 0
12 -4 9 -10z m-313 -105 c0 -5 -5 -11 -11 -13 -6 -2 -11 4 -11 13 0 9 5 15 11
13 6 -2 11 -8 11 -13z m308 5 c0 -5 -5 -10 -11 -10 -5 0 -7 5 -4 10 3 6 8 10
11 10 2 0 4 -4 4 -10z m-303 -62 c-3 -8 -6 -5 -6 6 -1 11 2 17 5 13 3 -3 4
-12 1 -19z m-47 -42 c0 -8 -9 -21 -19 -28 -11 -8 -23 -26 -26 -41 -4 -15 -12
-27 -17 -27 -6 0 -17 -8 -24 -17 -7 -10 -15 -15 -19 -11 -8 8 6 35 20 40 6 2
9 7 7 12 -6 18 10 45 23 39 9 -3 18 4 25 21 10 28 30 35 30 12z m195 -26 c-3
-5 -11 -10 -16 -10 -6 0 -7 5 -4 10 3 6 11 10 16 10 6 0 7 -4 4 -10z m-112
-89 c-17 -20 -43 -29 -43 -14 0 12 55 52 58 43 2 -5 -5 -18 -15 -29z m-203
-29 c0 -5 -6 -17 -14 -27 -13 -18 -14 -18 -9 8 5 24 23 39 23 19z m94 -75 c-4
-7 -22 -32 -39 -57 -18 -25 -36 -55 -39 -67 -4 -13 -11 -23 -14 -23 -4 0 -14
-20 -21 -44 -12 -43 -41 -71 -41 -41 0 8 -4 15 -9 15 -5 0 -8 11 -7 24 0 13 3
23 6 21 3 -2 16 12 28 31 19 29 20 35 7 40 -20 8 -54 -5 -38 -14 17 -11 -6
-36 -46 -50 -19 -7 -35 -12 -36 -12 -10 0 5 46 18 55 9 7 17 17 17 24 0 6 14
25 30 43 25 26 30 28 30 12 0 -11 9 -28 21 -37 20 -18 21 -18 35 0 13 17 14
17 8 -2 -4 -11 12 8 35 43 23 34 46 60 52 57 5 -4 6 -12 3 -18z m6 -1515 c0
-13 -12 -22 -22 -16 -10 6 -1 24 13 24 5 0 9 -4 9 -8z"/>
<path d="M4186 4842 c-3 -5 1 -9 9 -9 8 0 15 4 15 9 0 4 -4 8 -9 8 -6 0 -12
-4 -15 -8z"/>
<path d="M4805 4481 c-3 -5 -2 -11 2 -13 15 -8 36 -3 41 10 4 14 -34 17 -43 3z"/>
<path d="M4782 4420 c-7 -11 -12 -28 -12 -38 0 -10 -7 -27 -15 -38 -8 -10 -15
-28 -15 -40 0 -12 -11 -38 -25 -58 -14 -20 -25 -39 -25 -42 0 -3 -9 -18 -19
-33 l-20 -27 30 -18 c32 -19 40 -5 14 24 -14 15 -13 19 5 35 19 17 21 17 41
-1 17 -16 22 -16 29 -4 14 22 13 26 -15 38 -23 11 -24 15 -14 34 6 13 13 24
14 26 2 2 15 -4 30 -14 23 -15 28 -15 36 -3 14 22 11 29 -15 39 -30 11 -38 23
-30 45 5 12 14 15 35 11 22 -4 32 0 44 17 15 21 14 23 -8 32 -13 6 -31 15 -38
22 -12 10 -17 8 -27 -7z"/>
<path d="M4587 4089 c-15 -18 -25 -34 -21 -38 3 -3 11 1 17 9 7 8 21 15 32 15
13 0 21 8 23 23 5 32 -18 28 -51 -9z"/>
<path d="M3620 3716 c-30 -6 -60 -14 -66 -18 -6 -4 -31 -9 -56 -11 -58 -5
-146 -34 -183 -61 -16 -12 -42 -27 -56 -33 -50 -21 -159 -135 -210 -217 -44
-71 -84 -171 -81 -201 0 -5 2 -25 3 -42 1 -18 6 -33 12 -33 5 0 7 -7 3 -15 -3
-8 -1 -15 4 -15 6 0 10 -6 10 -13 0 -8 10 -23 23 -35 24 -23 43 -30 32 -12 -8
12 15 13 34 1 7 -5 10 -14 7 -20 -4 -6 -4 -12 1 -12 4 -1 17 -3 28 -5 11 -1
31 -5 44 -8 27 -6 54 10 44 27 -3 6 -1 7 5 3 6 -3 16 3 22 14 6 11 19 20 30
20 18 0 50 48 50 77 0 15 16 17 25 3 12 -19 23 -10 31 28 4 20 8 42 8 47 1 6
7 20 14 33 10 17 17 21 26 13 10 -8 17 -1 31 29 25 56 42 69 53 39 9 -22 10
-21 29 21 12 25 27 54 35 64 14 18 15 17 22 -15 8 -38 8 -38 56 41 13 22 27
40 31 40 4 0 10 -13 14 -30 9 -40 21 -38 35 5 11 32 61 85 81 85 5 0 9 -18 9
-40 l0 -40 43 45 c27 27 52 45 66 45 20 0 22 -4 16 -30 -4 -16 -4 -30 -2 -30
3 0 21 16 41 36 40 40 62 40 59 -1 l-2 -28 23 22 c21 20 65 28 79 15 3 -4 2
-15 -4 -25 -11 -22 -1 -24 24 -4 21 15 47 10 47 -9 0 -7 13 -13 30 -13 16 0
39 -8 50 -18 16 -15 22 -16 35 -5 25 20 29 4 5 -20 -18 -18 -71 -43 -115 -54
-5 -2 -23 -8 -38 -14 -16 -7 -35 -12 -44 -12 -8 0 -47 -17 -87 -37 -75 -40
-191 -145 -218 -198 -32 -63 -57 -188 -53 -265 8 -145 26 -226 53 -233 16 -4
16 -5 0 -6 -16 -1 -16 -4 -2 -42 8 -23 22 -47 31 -54 9 -7 14 -19 10 -29 -4
-11 -1 -16 9 -16 11 0 14 -6 10 -16 -6 -15 13 -52 46 -88 10 -11 18 -29 18
-40 0 -21 62 -119 138 -219 43 -57 163 -148 211 -160 19 -5 32 2 58 28 30 30
33 38 33 92 0 88 -44 204 -105 281 -19 24 -37 54 -40 68 -3 13 -7 35 -10 49
-3 15 -12 25 -23 25 -16 1 -16 1 0 11 12 7 18 22 17 47 -2 64 20 131 86 266
96 196 109 245 109 401 0 125 -1 133 -31 197 -38 80 -111 153 -228 227 -145
91 -374 132 -545 97z m210 -163 c0 -9 -3 -14 -6 -10 -3 3 -17 2 -31 -4 -16 -6
-22 -6 -18 1 3 6 -4 11 -17 11 -19 1 -18 3 7 9 50 13 65 11 65 -7z m-100 0 c0
-5 -13 -16 -29 -25 -18 -10 -28 -12 -25 -4 4 9 13 16 52 35 1 0 2 -2 2 -6z
m-140 -128 c-7 -9 -15 -13 -19 -10 -3 3 1 10 9 15 21 14 24 12 10 -5z m-499
-160 c-18 -38 -47 -49 -35 -13 8 27 25 47 40 48 8 0 6 -12 -5 -35z m1306 13
c-3 -8 -6 -5 -6 6 -1 11 2 17 5 13 3 -3 4 -12 1 -19z m3 -48 c0 -11 -4 -20 -9
-20 -5 0 -7 9 -4 20 3 11 7 20 9 20 2 0 4 -9 4 -20z m-1210 -40 c0 -5 -7 -10
-15 -10 -8 0 -15 5 -15 10 0 6 7 10 15 10 8 0 15 -4 15 -10z m32 -42 c-7 -7
-12 -8 -12 -2 0 6 3 14 7 17 3 4 9 5 12 2 2 -3 -1 -11 -7 -17z m754 -16 c-3
-5 -16 -12 -28 -15 -22 -6 -22 -6 2 13 25 19 37 20 26 2z m-956 -37 c0 -8 -4
-15 -8 -15 -5 0 -9 7 -9 15 0 8 4 15 9 15 4 0 8 -7 8 -15z m1355 -46 c-10 -15
-25 -10 -19 6 4 8 10 12 15 9 5 -3 7 -10 4 -15z"/>
<path d="M4666 2872 c-4 -6 -2 -20 4 -31 6 -12 6 -22 1 -25 -8 -6 -6 -19 17
-86 3 -8 4 -18 4 -22 -1 -5 2 -8 7 -8 5 0 7 28 4 63 -6 71 -25 128 -37 109z"/>
<path d="M4703 2595 c-7 -22 -15 -59 -19 -82 -4 -24 -11 -43 -16 -43 -5 0 -7
-4 -3 -10 3 -5 -6 -17 -20 -26 -23 -15 -38 -43 -15 -29 12 7 12 -2 0 -30 l-9
-20 -1 20 c-1 17 -3 16 -16 -8 -9 -16 -13 -35 -10 -43 3 -8 2 -14 -2 -14 -11
0 -32 -52 -32 -81 0 -24 10 -51 33 -86 13 -21 53 12 78 65 12 26 29 72 36 102
16 60 26 213 13 205 -4 -2 -6 7 -4 20 1 14 -2 23 -7 19 -12 -7 -11 3 2 27 5
11 9 28 7 37 -2 10 -8 0 -15 -23z m-6 -197 c-9 -34 -12 -38 -15 -19 -5 31 6
73 17 66 5 -2 4 -24 -2 -47z"/>
<path d="M2056 2577 c3 -10 9 -15 12 -12 3 3 0 11 -7 18 -10 9 -11 8 -5 -6z"/>
<path d="M2076 2530 c3 -14 10 -32 15 -40 7 -13 8 -13 8 0 0 8 -6 26 -15 40
l-15 25 7 -25z"/>
<path d="M3272 2421 c-10 -6 -8 -10 10 -16 12 -4 26 -7 30 -6 20 2 58 -20 58
-35 0 -11 5 -14 16 -10 25 10 87 -33 81 -56 -5 -16 -1 -18 27 -13 24 5 36 2
50 -14 16 -18 17 -23 5 -37 -13 -16 -11 -17 26 -11 35 6 43 3 55 -16 8 -12 15
-29 15 -37 0 -9 12 -16 30 -18 43 -5 58 -21 51 -55 -6 -28 -4 -29 24 -25 38 6
70 -23 51 -46 -10 -12 -7 -15 17 -21 17 -3 38 -15 48 -26 16 -18 16 -20 1 -37
-25 -27 -21 -35 16 -30 19 2 34 -1 35 -7 0 -5 3 -19 7 -30 4 -15 -1 -24 -22
-37 l-28 -17 41 -1 c45 0 64 -14 64 -47 0 -16 6 -23 19 -23 35 0 35 -22 2 -49
-34 -28 -41 -47 -13 -36 50 21 81 23 97 6 17 -20 20 -41 5 -41 -11 0 -45 -49
-38 -55 3 -3 21 2 41 10 57 24 71 20 64 -15 l-6 -30 44 7 c29 4 50 1 59 -7 12
-9 22 -7 51 15 31 24 51 56 25 40 -6 -4 -29 -4 -51 0 -70 12 -123 81 -213 276
-9 20 -26 46 -36 57 -11 12 -20 24 -20 26 0 11 -72 101 -120 151 -109 113
-215 190 -345 251 -88 41 -137 51 -120 24 3 -5 1 -10 -4 -10 -6 0 -10 10 -8
22 1 15 -5 24 -23 29 -35 10 -103 10 -118 0z"/>
<path d="M3940 1765 c-10 -12 -9 -15 7 -15 11 0 20 7 20 15 0 8 -4 15 -7 15
-4 0 -13 -7 -20 -15z"/>
<path d="M3600 740 c0 -10 179 -104 186 -98 1 2 -31 22 -74 43 -42 22 -82 46
-90 53 -16 15 -22 15 -22 2z"/>
<path d="M4402 445 c-15 -17 -4 -19 36 -8 18 4 20 8 10 14 -19 12 -31 10 -46
-6z"/>
<path d="M4638 394 c-8 -7 42 -83 55 -84 4 0 7 11 7 25 0 18 -5 25 -18 25 -11
0 -23 9 -28 21 -5 11 -13 17 -16 13z"/>
</g>
</svg>
